<?xml version="1.0" encoding="utf-8" standalone="no"?>
<!DOCTYPE svg PUBLIC "-//W3C//DTD SVG 1.1//EN"
  "http://www.w3.org/Graphics/SVG/1.1/DTD/svg11.dtd">
<svg xmlns:xlink="http://www.w3.org/1999/xlink" width="1152pt" height="720pt" viewBox="0 0 1152 720" xmlns="http://www.w3.org/2000/svg" version="1.1">
 <metadata>
  <rdf:RDF xmlns:dc="http://purl.org/dc/elements/1.1/" xmlns:cc="http://creativecommons.org/ns#" xmlns:rdf="http://www.w3.org/1999/02/22-rdf-syntax-ns#">
   <cc:Work>
    <dc:type rdf:resource="http://purl.org/dc/dcmitype/StillImage"/>
    <dc:date>2026-10-04T14:25:50.763309</dc:date>
    <dc:format>image/svg+xml</dc:format>
    <dc:creator>
     <cc:Agent>
      <dc:title>Matplotlib v3.11.2, https://matplotlib.org/</dc:title>
     </cc:Agent>
    </dc:creator>
   </cc:Work>
  </rdf:RDF>
 </metadata>
 <defs>
  <style type="text/css">*{stroke-linejoin: round; stroke-linecap: butt}</style>
 </defs>
 <g id="figure_1">
  <g id="patch_1">
   <path d="M 0 720 
L 1152 720 
L 1152 0 
L 0 0 
z
" style="fill: #f5f8fa"/>
  </g>
  <g id="axes_1">
   <g id="patch_2">
    <path d="M 56.88 314.64 
L 346.32 314.64 
Q 357.84 314.64 357.84 303.12 
L 357.84 111.6 
Q 357.84 100.08 346.32 100.08 
L 56.88 100.08 
Q 45.36 100.08 45.36 111.6 
L 45.36 303.12 
Q 45.36 314.64 56.88 314.64 
z
" clip-path="url(#p9e21d6e0dc)" style="fill: #ffffff; stroke: #d8e3ea; stroke-linejoin: miter"/>
   </g>
   <g id="patch_3">
    <path d="M 92.16 219.6 
C 95.597032 219.6 98.893755 218.234453 101.324104 215.804104 
C 103.754453 213.373755 105.12 210.077032 105.12 206.64 
C 105.12 203.202968 103.754453 199.906245 101.324104 197.475896 
C 98.893755 195.045547 95.597032 193.68 92.16 193.68 
C 88.722968 193.68 85.426245 195.045547 82.995896 197.475896 
C 80.565547 199.906245 79.2 203.202968 79.2 206.64 
C 79.2 210.077032 80.565547 213.373755 82.995896 215.804104 
C 85.426245 218.234453 88.722968 219.6 92.16 219.6 
z
" clip-path="url(#p9e21d6e0dc)" style="fill: #658ba9"/>
   </g>
   <g id="patch_4">
    <path d="M 81.36 260.64 
L 102.96 260.64 
Q 114.48 260.64 114.48 249.12 
L 114.48 234.72 
Q 114.48 223.2 102.96 223.2 
L 81.36 223.2 
Q 69.84 223.2 69.84 234.72 
L 69.84 249.12 
Q 69.84 260.64 81.36 260.64 
z
" clip-path="url(#p9e21d6e0dc)" style="fill: #e8eff4; stroke: #d8e3ea; stroke-linejoin: miter"/>
   </g>
   <g id="patch_5">
    <path d="M 364.163467 208.8 
Q 379.081012 208.8 391.986097 208.8 
" clip-path="url(#p9e21d6e0dc)" style="fill: none; stroke: #607487; stroke-width: 1.8; stroke-linecap: round"/>
    <path d="M 384.786097 205.2 
L 391.986097 208.8 
L 384.786097 212.4 
z
" clip-path="url(#p9e21d6e0dc)" style="fill: #607487; stroke: #607487; stroke-width: 1.8; stroke-linecap: round"/>
   </g>
   <g id="patch_6">
    <path d="M 412.56 314.64 
L 735.12 314.64 
Q 746.64 314.64 746.64 303.12 
L 746.64 111.6 
Q 746.64 100.08 735.12 100.08 
L 412.56 100.08 
Q 401.04 100.08 401.04 111.6 
L 401.04 303.12 
Q 401.04 314.64 412.56 314.64 
z
" clip-path="url(#p9e21d6e0dc)" style="fill: #e9f3f4; stroke: #d8e3ea; stroke-linejoin: miter"/>
   </g>
   <g id="patch_7">
    <path d="M 752.963467 208.8 
Q 767.881012 208.8 780.786097 208.8 
" clip-path="url(#p9e21d6e0dc)" style="fill: none; stroke: #607487; stroke-width: 1.8; stroke-linecap: round"/>
    <path d="M 773.586097 205.2 
L 780.786097 208.8 
L 773.586097 212.4 
z
" clip-path="url(#p9e21d6e0dc)" style="fill: #607487; stroke: #607487; stroke-width: 1.8; stroke-linecap: round"/>
   </g>
   <g id="patch_8">
    <path d="M 801.36 314.64 
L 1095.12 314.64 
Q 1106.64 314.64 1106.64 303.12 
L 1106.64 111.6 
Q 1106.64 100.08 1095.12 100.08 
L 801.36 100.08 
Q 789.84 100.08 789.84 111.6 
L 789.84 303.12 
Q 789.84 314.64 801.36 314.64 
z
" clip-path="url(#p9e21d6e0dc)" style="fill: #ffffff; stroke: #d8e3ea; stroke-linejoin: miter"/>
   </g>
   <g id="patch_9">
    <path d="M 948.24 234.559951 
Q 948.24 245.879876 948.24 255.18734 
" clip-path="url(#p9e21d6e0dc)" style="fill: none; stroke: #607487; stroke-width: 1.8; stroke-linecap: round"/>
    <path d="M 951.84 247.98734 
L 948.24 255.18734 
L 944.64 247.98734 
z
" clip-path="url(#p9e21d6e0dc)" style="fill: #607487; stroke: #607487; stroke-width: 1.8; stroke-linecap: round"/>
   </g>
   <g id="patch_10">
    <path d="M 56.88 604.8 
L 717.12 604.8 
Q 728.64 604.8 728.64 593.28 
L 728.64 350.64 
Q 728.64 339.12 717.12 339.12 
L 56.88 339.12 
Q 45.36 339.12 45.36 350.64 
L 45.36 593.28 
Q 45.36 604.8 56.88 604.8 
z
" clip-path="url(#p9e21d6e0dc)" style="fill: #ffffff; stroke: #d8e3ea; stroke-linejoin: miter"/>
   </g>
   <g id="patch_11">
    <path d="M 758.16 604.8 
L 1095.12 604.8 
Q 1106.64 604.8 1106.64 593.28 
L 1106.64 350.64 
Q 1106.64 339.12 1095.12 339.12 
L 758.16 339.12 
Q 746.64 339.12 746.64 350.64 
L 746.64 593.28 
Q 746.64 604.8 758.16 604.8 
z
" clip-path="url(#p9e21d6e0dc)" style="fill: #e9f3f4; stroke: #d8e3ea; stroke-linejoin: miter"/>
   </g>
   <g id="patch_12">
    <path d="M 56.88 678.96 
L 1095.12 678.96 
Q 1106.64 678.96 1106.64 667.44 
L 1106.64 635.76 
Q 1106.64 624.24 1095.12 624.24 
L 56.88 624.24 
Q 45.36 624.24 45.36 635.76 
L 45.36 667.44 
Q 45.36 678.96 56.88 678.96 
z
" clip-path="url(#p9e21d6e0dc)" style="fill: #193249; stroke: #d8e3ea; stroke-linejoin: miter"/>
   </g>
   <g id="line2d_1">
    <path d="M 84.24 241.92 
L 100.08 241.92 
" clip-path="url(#p9e21d6e0dc)" style="fill: none; stroke: #007f83; stroke-width: 2; stroke-linecap: square"/>
   </g>
   <g id="line2d_2">
    <path d="M 92.16 249.84 
L 92.16 234 
" clip-path="url(#p9e21d6e0dc)" style="fill: none; stroke: #007f83; stroke-width: 2; stroke-linecap: square"/>
   </g>
   <g id="line2d_3">
    <path d="M 446.4 565.92 
L 446.4 430.56 
" clip-path="url(#p9e21d6e0dc)" style="fill: none; stroke: #e2e8ee; stroke-linecap: square"/>
   </g>
   <g id="line2d_4">
    <path d="M 533.664 565.92 
L 533.664 430.56 
" clip-path="url(#p9e21d6e0dc)" style="fill: none; stroke: #e2e8ee; stroke-linecap: square"/>
   </g>
   <g id="line2d_5">
    <path d="M 620.928 565.92 
L 620.928 430.56 
" clip-path="url(#p9e21d6e0dc)" style="fill: none; stroke: #e2e8ee; stroke-linecap: square"/>
   </g>
   <g id="text_1">
    <text style="font-weight: 700; font-size: 26px; font-family: 'DejaVu Sans'; text-anchor: start; fill: #193249" x="46.8" y="54.722813" transform="rotate(-0 46.8 54.722813)">Length-of-stay prediction using physician latent traits</text>
   </g>
   <g id="text_2">
    <text style="font-size: 13px; font-family: 'DejaVu Sans'; text-anchor: start; fill: #607487" x="46.8" y="82.852188" transform="rotate(-0 46.8 82.852188)">MIMIC-IV v3.1  •  294,701 admissions  •  148,239 patients  •  1,807 admitting physicians</text>
   </g>
   <g id="text_3">
    <text style="font-weight: 700; font-size: 12px; font-family: 'DejaVu Sans'; text-anchor: start; fill: #007f83" x="66.24" y="132.587812" transform="rotate(-0 66.24 132.587812)">01   INTERACTION RECORDS</text>
   </g>
   <g id="text_4">
    <text style="font-weight: 700; font-size: 13px; font-family: 'DejaVu Sans'; text-anchor: start; fill: #193249" x="66.24" y="168.481406" transform="rotate(-0 66.24 168.481406)">Patient ↔ Physician → Length of stay</text>
   </g>
   <g id="text_5">
    <text style="font-weight: 700; font-size: 14px; font-family: 'DejaVu Sans'; text-anchor: start; fill: #193249" x="133.92" y="206.918437" transform="rotate(-0 133.92 206.918437)">Physician ID available</text>
   </g>
   <g id="text_6">
    <text style="font-size: 12px; font-family: 'DejaVu Sans'; fill: #607487" transform="translate(133.92 234.49125)">No observed physician</text>
    <text style="font-size: 12px; font-family: 'DejaVu Sans'; fill: #607487" transform="translate(133.92 253.05375)">attributes</text>
   </g>
   <g id="text_7">
    <text style="font-size: 10px; font-family: 'DejaVu Sans'; text-anchor: start; fill: #607487" x="66.24" y="290.809375" transform="rotate(-0 66.24 290.809375)">Learn from admissions handled by each physician</text>
   </g>
   <g id="text_8">
    <text style="font-weight: 700; font-size: 11px; font-family: 'DejaVu Sans'; text-anchor: start; fill: #007f83" x="421.2" y="131.498828" transform="rotate(-0 421.2 131.498828)">02   CDLD REPRESENTATION LEARNING</text>
   </g>
   <g id="text_9">
    <text style="font-weight: 700; font-size: 16px; font-family: 'DejaVu Sans'; text-anchor: middle; fill: #193249" x="573.84" y="173.085" transform="rotate(-0 573.84 173.085)">Patient Latent Finder</text>
   </g>
   <g id="text_10">
    <text style="font-size: 23px; font-family: 'DejaVu Sans'; text-anchor: middle; fill: #007f83" x="573.84" y="212.923516" transform="rotate(-0 573.84 212.923516)">↕</text>
   </g>
   <g id="text_11">
    <text style="font-weight: 700; font-size: 16px; font-family: 'DejaVu Sans'; text-anchor: middle; fill: #193249" x="573.84" y="233.3925" transform="rotate(-0 573.84 233.3925)">Physician Latent Finder</text>
   </g>
   <g id="text_12">
    <text style="font-weight: 700; font-size: 13px; font-family: 'DejaVu Sans'; text-anchor: middle; fill: #007f83" x="573.84" y="280.801406" transform="rotate(-0 573.84 280.801406)">64-dimensional physician vectors</text>
   </g>
   <g id="text_13">
    <text style="font-weight: 700; font-size: 11px; font-family: 'DejaVu Sans'; text-anchor: start; fill: #007f83" x="810" y="131.498828" transform="rotate(-0 810 131.498828)">03   LENGTH-OF-STAY PREDICTION</text>
   </g>
   <g id="text_14">
    <text style="font-weight: 700; font-size: 13px; font-family: 'DejaVu Sans'; text-anchor: middle; fill: #193249" x="948.24" y="167.092187" transform="rotate(-0 948.24 167.092187)">54 patient features at admission</text>
   </g>
   <g id="text_15">
    <text style="font-size: 18px; font-family: 'DejaVu Sans'; text-anchor: middle; fill: #007f83" x="948.24" y="200.133281" transform="rotate(-0 948.24 200.133281)">+</text>
   </g>
   <g id="text_16">
    <text style="font-weight: 700; font-size: 15px; font-family: 'DejaVu Sans'; text-anchor: middle; fill: #007f83" x="948.24" y="223.035469" transform="rotate(-0 948.24 223.035469)">Physician latent traits</text>
   </g>
   <g id="text_17">
    <text style="font-weight: 700; font-size: 14px; font-family: 'DejaVu Sans'; text-anchor: middle; fill: #193249" x="948.24" y="282.518438" transform="rotate(-0 948.24 282.518438)">Predicted length of stay</text>
   </g>
   <g id="text_18">
    <text style="font-weight: 700; font-size: 12px; font-family: 'DejaVu Sans'; text-anchor: start; fill: #007f83" x="66.96" y="371.627813" transform="rotate(-0 66.96 371.627813)">PREDICTION ERROR</text>
   </g>
   <g id="text_19">
    <text style="font-size: 12px; font-family: 'DejaVu Sans'; text-anchor: start; fill: #607487" x="66.96" y="399.37125" transform="rotate(-0 66.96 399.37125)">Five-fold cross-validation · RMSE in days (lower is better)</text>
   </g>
   <g id="text_20">
    <text style="font-size: 10px; font-family: 'DejaVu Sans'; text-anchor: middle; fill: #607487" x="446.4" y="589.120937" transform="rotate(-0 446.4 589.120937)">4.2</text>
   </g>
   <g id="text_21">
    <text style="font-size: 10px; font-family: 'DejaVu Sans'; text-anchor: middle; fill: #607487" x="533.664" y="589.049844" transform="rotate(-0 533.664 589.049844)">4.3</text>
   </g>
   <g id="text_22">
    <text style="font-size: 10px; font-family: 'DejaVu Sans'; text-anchor: middle; fill: #607487" x="620.928" y="589.055313" transform="rotate(-0 620.928 589.055313)">4.4</text>
   </g>
   <g id="text_23">
    <text style="font-size: 13px; font-family: 'DejaVu Sans'; text-anchor: start; fill: #607487" x="69.84" y="449.151563" transform="rotate(-0 69.84 449.151563)">Patient features</text>
   </g>
   <g id="PathCollection_1">
    <defs>
     <path id="m7624b15395" d="M 0 4.609772 
C 1.222526 4.609772 2.395145 4.124058 3.259601 3.259601 
C 4.124058 2.395145 4.609772 1.222526 4.609772 0 
C 4.609772 -1.222526 4.124058 -2.395145 3.259601 -3.259601 
C 2.395145 -4.124058 1.222526 -4.609772 0 -4.609772 
C -1.222526 -4.609772 -2.395145 -4.124058 -3.259601 -3.259601 
C -4.124058 -2.395145 -4.609772 -1.222526 -4.609772 0 
C -4.609772 1.222526 -4.124058 2.395145 -3.259601 3.259601 
C -2.395145 4.124058 -1.222526 4.609772 0 4.609772 
z
" style="stroke: #607487"/>
    </defs>
    <g clip-path="url(#p9e21d6e0dc)">
     <use xlink:href="#m7624b15395" x="609.58368" y="441.36" style="fill: #607487; stroke: #607487"/>
    </g>
   </g>
   <g id="text_24">
    <text style="font-weight: 700; font-size: 12px; font-family: 'DejaVu Sans'; text-anchor: start; fill: #607487" x="618.94368" y="447.947812" transform="rotate(-0 618.94368 447.947812)">4.387</text>
   </g>
   <g id="text_25">
    <text style="font-size: 13px; font-family: 'DejaVu Sans'; text-anchor: start; fill: #658ba9" x="69.84" y="484.612188" transform="rotate(-0 69.84 484.612188)">+ Physician historical mean</text>
   </g>
   <g id="PathCollection_2">
    <defs>
     <path id="m8af72986f2" d="M 0 4.609772 
C 1.222526 4.609772 2.395145 4.124058 3.259601 3.259601 
C 4.124058 2.395145 4.609772 1.222526 4.609772 0 
C 4.609772 -1.222526 4.124058 -2.395145 3.259601 -3.259601 
C 2.395145 -4.124058 1.222526 -4.609772 0 -4.609772 
C -1.222526 -4.609772 -2.395145 -4.124058 -3.259601 -3.259601 
C -4.124058 -2.395145 -4.609772 -1.222526 -4.609772 0 
C -4.609772 1.222526 -4.124058 2.395145 -3.259601 3.259601 
C -2.395145 4.124058 -1.222526 4.609772 0 4.609772 
z
" style="stroke: #658ba9"/>
    </defs>
    <g clip-path="url(#p9e21d6e0dc)">
     <use xlink:href="#m8af72986f2" x="533.664" y="478.08" style="fill: #658ba9; stroke: #658ba9"/>
    </g>
   </g>
   <g id="text_26">
    <text style="font-weight: 700; font-size: 12px; font-family: 'DejaVu Sans'; text-anchor: start; fill: #658ba9" x="543.024" y="484.667812" transform="rotate(-0 543.024 484.667812)">4.300</text>
   </g>
   <g id="text_27">
    <text style="font-size: 13px; font-family: 'DejaVu Sans'; text-anchor: start; fill: #658ba9" x="69.84" y="521.332188" transform="rotate(-0 69.84 521.332188)">+ Shrunk physician historical mean</text>
   </g>
   <g id="PathCollection_3">
    <g clip-path="url(#p9e21d6e0dc)">
     <use xlink:href="#m8af72986f2" x="530.17344" y="514.8" style="fill: #658ba9; stroke: #658ba9"/>
    </g>
   </g>
   <g id="text_28">
    <text style="font-weight: 700; font-size: 12px; font-family: 'DejaVu Sans'; text-anchor: start; fill: #658ba9" x="539.53344" y="521.387812" transform="rotate(-0 539.53344 521.387812)">4.296</text>
   </g>
   <g id="text_29">
    <text style="font-weight: 700; font-size: 13px; font-family: 'DejaVu Sans'; text-anchor: start; fill: #007f83" x="69.84" y="558.001406" transform="rotate(-0 69.84 558.001406)">+ Physician latent traits (CDLD)</text>
   </g>
   <g id="PathCollection_4">
    <defs>
     <path id="m9ce238b937" d="M 0 4.609772 
C 1.222526 4.609772 2.395145 4.124058 3.259601 3.259601 
C 4.124058 2.395145 4.609772 1.222526 4.609772 0 
C 4.609772 -1.222526 4.124058 -2.395145 3.259601 -3.259601 
C 2.395145 -4.124058 1.222526 -4.609772 0 -4.609772 
C -1.222526 -4.609772 -2.395145 -4.124058 -3.259601 -3.259601 
C -4.124058 -2.395145 -4.609772 -1.222526 -4.609772 0 
C -4.609772 1.222526 -4.124058 2.395145 -3.259601 3.259601 
C -2.395145 4.124058 -1.222526 4.609772 0 4.609772 
z
" style="stroke: #007f83"/>
    </defs>
    <g clip-path="url(#p9e21d6e0dc)">
     <use xlink:href="#m9ce238b937" x="507.4848" y="551.52" style="fill: #007f83; stroke: #007f83"/>
    </g>
   </g>
   <g id="text_30">
    <text style="font-weight: 700; font-size: 12px; font-family: 'DejaVu Sans'; text-anchor: start; fill: #007f83" x="516.8448" y="558.107813" transform="rotate(-0 516.8448 558.107813)">4.270</text>
   </g>
   <g id="text_31">
    <text style="font-weight: 700; font-size: 11px; font-family: 'DejaVu Sans'; text-anchor: start; fill: #007f83" x="769.68" y="370.538828" transform="rotate(-0 769.68 370.538828)">ADDING PHYSICIAN LATENT TRAITS</text>
   </g>
   <g id="text_32">
    <text style="font-weight: 700; font-size: 29px; font-family: 'DejaVu Sans'; text-anchor: start; fill: #007f83" x="769.68" y="425.633906" transform="rotate(-0 769.68 425.633906)">0.117 days</text>
   </g>
   <g id="text_33">
    <text style="font-size: 11px; font-family: 'DejaVu Sans'; text-anchor: start; fill: #607487" x="769.68" y="445.890312" transform="rotate(-0 769.68 445.890312)">lower RMSE than patient features alone</text>
   </g>
   <g id="text_34">
    <text style="font-weight: 700; font-size: 22px; font-family: 'DejaVu Sans'; text-anchor: start; fill: #193249" x="769.68" y="494.837656" transform="rotate(-0 769.68 494.837656)">R²   0.048 → 0.098</text>
   </g>
   <g id="text_35">
    <text style="font-size: 12px; font-family: 'DejaVu Sans'; text-anchor: start; fill: #193249" x="769.68" y="531.13125" transform="rotate(-0 769.68 531.13125)">Combines observed patient features</text>
   </g>
   <g id="text_36">
    <text style="font-size: 12px; font-family: 'DejaVu Sans'; text-anchor: start; fill: #193249" x="769.68" y="557.05125" transform="rotate(-0 769.68 557.05125)">with physician information learned</text>
   </g>
   <g id="text_37">
    <text style="font-size: 12px; font-family: 'DejaVu Sans'; text-anchor: start; fill: #193249" x="769.68" y="584.13375" transform="rotate(-0 769.68 584.13375)">from interaction records.</text>
   </g>
   <g id="text_38">
    <text style="font-weight: 700; font-size: 17px; font-family: 'DejaVu Sans'; text-anchor: middle; fill: #ffffff" x="576" y="659.189531" transform="rotate(-0 576 659.189531)">Physicians can enter the prediction model even when their attributes are unrecorded.</text>
   </g>
   <g id="text_39">
    <text style="font-size: 9px; font-family: 'DejaVu Sans'; text-anchor: start; fill: #607487" x="49.68" y="702.368438" transform="rotate(-0 49.68 702.368438)">CDLD = cyclic dual latent discovery. All comparison rows use the same 54 patient features; point estimates are from manuscript Table 2.</text>
   </g>
  </g>
 </g>
 <defs>
  <clipPath id="p9e21d6e0dc">
   <rect x="0" y="0" width="1152" height="720"/>
  </clipPath>
 </defs>
</svg>
